# xmcd
#
# Track frame offsets: 
#        150
#        14533
#        29985
#        43997
#        56205
#        74410
#        90875
#        107943
#        123559
#        140315
#        156120
#        170722
#        189228
#        204805
#
# Disc length: 2967 seconds
#
# Revision: 0
# Processed by: cddbd v1.5.2PL0 Copyright (c) Steve Scherf et al.
# Submitted via: ExactAudioCopy v1.1
#
DISCID=cb0b950e
DTITLE=Tanya Tucker - Singles and Doubles
DYEAR=2009
DGENRE=Country
TTITLE0=Just Another Love
TTITLE1=If It Don't Come Easy
TTITLE2=Why Don't We Just Sleep On it Tonight
TTITLE3=Strong Enought To Bend
TTITLE4=I'll Come Back As Another Woman
TTITLE5=I Won't Take Less Than Your Love
TTITLE6=Love Me Like You Use To
TTITLE7=Highway Robbery
TTITLE8=Tell Me About It
TTITLE9=My Arms Stay Open All Night
TTITLE10=Don't Go Out
TTITLE11=Two Sparrows in a Hurricane
TTITLE12=Soon
TTITLE13=Borrowed Wings
EXTD=
EXTT0=
EXTT1=
EXTT2=
EXTT3=
EXTT4=
EXTT5=
EXTT6=
EXTT7=
EXTT8=
EXTT9=
EXTT10=
EXTT11=
EXTT12=
EXTT13=
PLAYORDER=
